<svg xmlns="http://www.w3.org/2000/svg" style="display:none">
  <symbol id="icon-x" viewBox="0 0 24 24">
    <path d="M18.9 2H22l-7.6 8.7L23 22h-6.9l-5.4-6.9L4.3 22H1.2l8.1-9.3L1 2h7l4.9 6.3L18.9 2Zm-2.4 18h1.9L7.6 4H5.6l10.9 16Z" fill="currentColor"/>
  </symbol>
  <symbol id="icon-instagram" viewBox="0 0 24 24">
    <rect x="3" y="3" width="18" height="18" rx="5" fill="none" stroke="currentColor" stroke-width="1.8"/>
    <circle cx="12" cy="12" r="4.2" fill="none" stroke="currentColor" stroke-width="1.8"/>
    <circle cx="17.2" cy="6.8" r="1.1" fill="currentColor"/>
  </symbol>
  <symbol id="icon-linkedin" viewBox="0 0 24 24">
    <rect x="3" y="3" width="18" height="18" rx="3" fill="none" stroke="currentColor" stroke-width="1.8"/>
    <rect x="6.4" y="10" width="2.4" height="8" fill="currentColor"/>
    <circle cx="7.6" cy="6.8" r="1.4" fill="currentColor"/>
    <path d="M11.6 18v-8h2.3v1.2c.5-.8 1.4-1.4 2.6-1.4 1.9 0 3.1 1.3 3.1 3.5V18h-2.4v-4.2c0-1.1-.5-1.8-1.5-1.8-.9 0-1.6.6-1.7 1.6V18h-2.4Z" fill="currentColor"/>
  </symbol>
</svg>
